<svg xmlns="http://www.w3.org/2000/svg" viewBox="22 65 220 46" enable-background="new 22 65 220 46"><style type="text/css">.st0{fill:#FFFFFF;} .st1{fill:#00407A;} .st2{fill:#54BCEB;}</style><g id="Layer_1_1_"><path class="st0" d="M153.8 68.6H239V107h-85.2z"/><path class="st1" d="M150.4 110.8H26.6V69.6h123.8z"/><path class="st2" d="M242 110.8V65H22v45.9h4.6V69.6h123.7v41.2H242zm-4.6-4.6h-11.7l-6.9-6.9-6.9 6.9H155V69.6h82.5v36.6h-.1z"/><path class="st0" d="M35.8 83.3h4V88l3.7-4.7h5l-4.7 5.3 5.6 8.5h-5.1l-3.4-5.5-1.1 1.4v4.1h-4zM61.6 91.8c0 3.8-2 5.6-6 5.6-4.1 0-6.1-1.8-6.1-5.6v-8.4h4.1v7.5c0 1.4 0 3.1 2 3.1 1.9 0 1.9-1.8 1.9-3.1v-7.5h4.1v8.4zM67.7 83.3h4.1v10.2h5.7v3.6h-9.8zM78.8 83.3h11v3.6h-6.9v1.6h6.2v3.3h-6.2v1.7h7v3.6H78.8zM103.1 91.8c0 3.8-2 5.6-6 5.6-4.1 0-6.1-1.8-6.1-5.6v-8.4h4.1v7.5c0 1.4 0 3.1 2 3.1 1.9 0 1.9-1.8 1.9-3.1v-7.5h4.1v8.4zM112.3 97.1h-4.7l-3.9-13.8h4.2l2.2 8.3 2.2-8.3h4.2zM117 83.3h10.9v3.6h-6.8v1.6h6.1v3.3h-6.1v1.7h7.1v3.6H117zM129.1 83.3h4.3l3.9 7.5v-7.5h3.8v13.8h-3.9l-4.1-7.6v7.6h-4z"/><path class="st1" d="M165.6 96.8c.5.1 1.2.1 1.8.1s1.2 0 1.8-.1V78.2c-.5-.1-1.2-.1-1.8-.1s-1.2 0-1.8.1v18.6zm7.8 0c.7.1 1.2.1 1.9.1s1.4 0 2-.1l-3.9-7.1 3.4-6c-.5-.1-1.2-.1-1.9-.1s-1.4 0-2 .1l-3.3 6.3 3.8 6.8zm5.7-6.2c0 1.4.1 2.6.5 3.4s.8 1.5 1.5 1.9c.5.4 1.4.7 2 .8.8.1 1.6.1 2.5.1 1 0 1.9-.1 2.7-.3 1-.1 1.6-.4 2.2-.5V83.5c-.5-.1-1.2-.1-1.8-.1s-1.2 0-1.8.1v10.2c-.4.1-1 .1-1.6.1-.4 0-.8 0-1.2-.1-.3-.1-.7-.3-.8-.5-.3-.3-.4-.7-.5-1.1s-.1-1-.1-1.8v-6.9c-.5-.1-1.2-.1-1.8-.1s-1.2 0-1.8.1v7.2zm14.6 1.6c0 1.6.4 2.7 1.2 3.5.8.7 1.8 1.1 3.1 1.1h1.1s.7-.1 1-.1v-.8c0-.7-.1-1.4-.3-2-.1 0-.3 0-.4.1h-.4c-.3 0-.5 0-.8-.1-.1 0-.4-.1-.5-.4-.1-.1-.3-.4-.3-.7s-.1-.7-.1-1.2V78.2c-.5-.1-1.2-.1-1.8-.1s-1.2 0-1.8.1v14zm14.8 1.8c-.1 0-.4.1-.7.1h-1.6s-.5-.1-.8-.1c-.3-.1-.5-.3-.7-.5-.1-.3-.3-.5-.3-1 0-.7.3-1.1.7-1.5.5-.3 1.1-.4 1.9-.4h.7s.4 0 .7.1V94h.1zm0-5.6c-.5 0-1.1-.1-1.6-.1-.7 0-1.4.1-2 .3s-1.2.4-1.8.7c-.5.3-1 .8-1.4 1.4-.4.5-.5 1.2-.5 2s.1 1.5.4 2 .7 1 1.2 1.4 1.1.5 1.9.8c.7.1 1.5.3 2.3.3 1.1 0 2-.1 2.9-.3.8-.1 1.5-.4 2.2-.5v-7.6c0-1.9-.5-3.3-1.5-4.1-1-.8-2.3-1.2-4.1-1.2-.7 0-1.4 0-2 .1s-1.5.3-2.2.5c0 .5 0 1 .1 1.4s.3.8.5 1.2c1.1-.4 2-.5 2.9-.5.4 0 .8 0 1.1.1.4 0 .7.1.8.3.3.1.4.4.5.5.1.3.1.5.1 1v.4h.2v-.1zm6.5 8.4c.5.1 1.2.1 1.8.1s1.2 0 1.8-.1V78.2c-.5-.1-1.2-.1-1.8-.1-.5 0-1.2 0-1.8.1v18.6zm7.9 0c.7.1 1.2.1 1.9.1s1.4 0 2-.1l-3.9-7.1 3.4-6c-.5-.1-1.2-.1-1.9-.1s-1.4 0-2 .1l-3.3 6.3 3.8 6.8z"/></g></svg>