<?xml version="1.0" encoding="utf-8"?>
<!-- Generator: Adobe Illustrator 24.1.0, SVG Export Plug-In . SVG Version: 6.00 Build 0)  -->
<svg version="1.1" id="Layer_1" xmlns="http://www.w3.org/2000/svg" xmlns:xlink="http://www.w3.org/1999/xlink" x="0px" y="0px"
	 viewBox="0 0 164 27" style="enable-background:new 0 0 164 27;" xml:space="preserve">
<style type="text/css">
	.st0{fill:#FFFFFF;}
	.st1{fill:#08A7EB;}
</style>
<g>
	<path class="st0" d="M41,5.1h4.8v5.5h0L50,5.1h5.9l-5.6,6.2l6.5,9.7h-5.9l-3.8-6.2l-1.3,1.5v4.7H41V5.1z"/>
	<path class="st0" d="M71.1,14.9c0,4.4-2.3,6.5-7,6.5c-4.7,0-7.1-2.1-7.1-6.5V5.1h4.8v8.7c0,1.6,0,3.7,2.3,3.7c2.3,0,2.3-2,2.3-3.7
		V5.1h4.8V14.9z"/>
	<path class="st0" d="M78.1,5.1h4.8V17h6.7v4.1H78.1V5.1z"/>
	<path class="st0" d="M91,5.1h12.7v4.1h-7.9v2h7.2V15h-7.2v2h8.2v4.1H91V5.1z"/>
	<path class="st0" d="M119.2,14.9c0,4.4-2.3,6.5-7,6.5c-4.7,0-7.1-2.1-7.1-6.5V5.1h4.8v8.7c0,1.6,0,3.7,2.3,3.7c2.3,0,2.3-2,2.3-3.7
		V5.1h4.8V14.9z"/>
	<path class="st0" d="M129.8,21.1h-5.3l-4.6-16h4.8l2.5,9.7h0l2.5-9.7h4.9L129.8,21.1z"/>
	<path class="st0" d="M135.3,5.1H148v4.1H140v2h7.2V15H140v2h8.2v4.1h-12.9V5.1z"/>
	<path class="st0" d="M149.4,5.1h4.9l4.5,8.5h0V5.1h4.5v16h-4.6l-4.7-8.7h0v8.7h-4.5V5.1z"/>
</g>
<path class="st1" d="M23.8,4.1c0,0.7-3.9,7.1-5.3,10.8c-0.4,0.9-0.5,1.6-0.5,2.2c0,1.3,0.7,1.4,1,1.4c1,0,2-1,2.9-2.2
	c0,0,0.1,0,0.1,0c0.5,0,0.7,0.4,0.7,0.7c0,0.3-0.1,0.6-0.4,0.9c-1.5,1.8-3.2,2.8-4.6,2.8c-0.4,0-0.7-0.1-1-0.2
	c-0.8-0.3-2.3-2.2-2.3-3.8c0-1.2,1.2-5,2.3-6.9c-2.4,2.8-5.4,6.4-6,6.9c-0.2,0.1-0.3,0.2-0.5,0.2c-1.1,0-1.2-1-1.2-3.2
	c0-1.6,0.1-3.7,0.1-5V8.2C6.5,12,3,18.8,2.3,22c0,0.2,0,0.4,0,0.5c0,0.3,0.1,0.4,0.1,0.5c0,0.1-0.1,0.1-0.2,0.1
	c-0.6,0-1.7-1.3-1.7-1.9v-0.1C1,16.7,8.3,1.3,9.6,0.9c0.1,0,0.2,0,0.3,0c0.9,0,2,0.9,2.6,1.5c0,0,0.1,0.2,0.1,0.5
	c0,1.6-0.8,7.2-0.8,9.1c0,0.4,0,0.7,0.1,0.7c0.5,0,6.8-8.2,7.6-8.9c0.4-0.3,0.7-0.8,1.4-0.8C22,2.9,23.8,3.5,23.8,4.1z M33.4,16.4
	c0,0.7-1.3,1.9-2.2,2.7c-0.9,0.8-2,1.5-2.9,1.8c-0.5,2.9-2.1,5.3-5.3,5.3c-0.3,0-0.5,0-0.8-0.1c-0.9-0.3-2-1.7-2-2.6
	c0-1.6,4-2,5.6-3l0.2-0.9c-0.7,0.5-1.6,0.8-2.6,0.8c-1.3,0-2.3-1.1-2.3-2.4c0-1.5,3.2-6.5,4.1-6.5c0.6,0,1.7,0.7,1.7,1.3
	c0,0.6-3,3.9-3,5.6c0,0.3,0.1,0.4,0.4,0.4c0.7,0,2-1,2.4-1.6c0.2-0.3,0.2-0.6,0.4-0.9c0.2-0.6,0.5-1.2,0.8-1.8
	c0.2-0.5,1.4-2.7,2.1-2.7c0.5,0,1.9,0.4,1.9,1.1c0,0.2-2.1,3.3-2.9,4.9c-0.2,0.5-0.4,1-0.4,1.4c0,0.1,0,0.1,0.1,0.1
	c0.6,0,2.6-2,3.5-3.2c0.2-0.2,0.4-0.3,0.6-0.3C33.1,15.8,33.4,16.1,33.4,16.4z M25.6,22.1c-0.5,0.3-3.4,1.1-3.4,1.7
	c0,0.4,0.6,0.7,0.9,0.7C24.2,24.4,25,23.3,25.6,22.1z"/>
</svg>
